<mxfile host="Electron" modified="2023-09-30T14:31:38.869Z" agent="Mozilla/5.0 (Windows NT 10.0; Win64; x64) AppleWebKit/537.36 (KHTML, like Gecko) draw.io/21.6.8 Chrome/114.0.5735.289 Electron/25.5.0 Safari/537.36" etag="yAjueSLlRCh_ONB2iQTb" version="21.6.8" type="device">
  <diagram name="Page-1" id="jJRcLGqpbsfkfbd6XXXs">
    <mxGraphModel dx="523" dy="382" grid="1" gridSize="10" guides="1" tooltips="1" connect="1" arrows="1" fold="1" page="1" pageScale="1" pageWidth="850" pageHeight="1100" math="0" shadow="0">
      <root>
        <mxCell id="0" />
        <mxCell id="1" parent="0" />
        <mxCell id="eMezQqYXwc0iN8xEVQgL-25" value="" style="rounded=1;whiteSpace=wrap;html=1;fontFamily=Computer Modern;" parent="1" vertex="1">
          <mxGeometry x="135" y="190" width="90" height="60" as="geometry" />
        </mxCell>
        <mxCell id="eMezQqYXwc0iN8xEVQgL-26" value="c-1" style="rounded=0;whiteSpace=wrap;html=1;fontFamily=Computer Modern;" parent="1" vertex="1">
          <mxGeometry x="195" y="198" width="20" height="20" as="geometry" />
        </mxCell>
        <mxCell id="eMezQqYXwc0iN8xEVQgL-27" value="counter" style="text;html=1;strokeColor=none;fillColor=none;align=right;verticalAlign=middle;whiteSpace=wrap;rounded=0;fontFamily=Computer Modern;" parent="1" vertex="1">
          <mxGeometry x="130" y="200.5" width="60" height="15" as="geometry" />
        </mxCell>
        <mxCell id="eMezQqYXwc0iN8xEVQgL-28" value="" style="endArrow=classic;html=1;rounded=0;dashed=1;entryX=0.5;entryY=0;entryDx=0;entryDy=0;fontFamily=Computer Modern;" parent="1" target="eMezQqYXwc0iN8xEVQgL-25" edge="1">
          <mxGeometry width="50" height="50" relative="1" as="geometry">
            <mxPoint x="180" y="160" as="sourcePoint" />
            <mxPoint x="195" y="110" as="targetPoint" />
          </mxGeometry>
        </mxCell>
        <mxCell id="eMezQqYXwc0iN8xEVQgL-29" value="" style="endArrow=classic;html=1;rounded=0;dashed=1;entryX=0.5;entryY=0;entryDx=0;entryDy=0;fontFamily=Computer Modern;" parent="1" edge="1">
          <mxGeometry width="50" height="50" relative="1" as="geometry">
            <mxPoint x="179.83" y="250" as="sourcePoint" />
            <mxPoint x="179.83" y="280" as="targetPoint" />
          </mxGeometry>
        </mxCell>
        <mxCell id="eMezQqYXwc0iN8xEVQgL-30" value="t&lt;sub&gt;1&lt;/sub&gt;&lt;br&gt;Increment()" style="text;html=1;strokeColor=none;fillColor=none;align=center;verticalAlign=middle;whiteSpace=wrap;rounded=0;fontFamily=Computer Modern;" parent="1" vertex="1">
          <mxGeometry x="150" y="120" width="60" height="40" as="geometry" />
        </mxCell>
        <mxCell id="eMezQqYXwc0iN8xEVQgL-31" value="c / x" style="text;html=1;strokeColor=none;fillColor=none;align=center;verticalAlign=middle;whiteSpace=wrap;rounded=0;fontFamily=Computer Modern;" parent="1" vertex="1">
          <mxGeometry x="163.5" y="284" width="32.5" height="10" as="geometry" />
        </mxCell>
        <mxCell id="Nr94H_6sKJIdwoHoWn_e-1" value="x" style="rounded=0;whiteSpace=wrap;html=1;fontFamily=Computer Modern;" parent="1" vertex="1">
          <mxGeometry x="195" y="222" width="20" height="20" as="geometry" />
        </mxCell>
        <mxCell id="Nr94H_6sKJIdwoHoWn_e-2" value="prescaler" style="text;html=1;strokeColor=none;fillColor=none;align=right;verticalAlign=middle;whiteSpace=wrap;rounded=0;fontFamily=Computer Modern;" parent="1" vertex="1">
          <mxGeometry x="130" y="224.5" width="60" height="15" as="geometry" />
        </mxCell>
        <mxCell id="Nr94H_6sKJIdwoHoWn_e-3" value="" style="rounded=1;whiteSpace=wrap;html=1;fontFamily=Computer Modern;" parent="1" vertex="1">
          <mxGeometry x="235" y="190" width="90" height="60" as="geometry" />
        </mxCell>
        <mxCell id="Nr94H_6sKJIdwoHoWn_e-4" value="c" style="rounded=0;whiteSpace=wrap;html=1;fontFamily=Computer Modern;" parent="1" vertex="1">
          <mxGeometry x="295" y="198" width="20" height="20" as="geometry" />
        </mxCell>
        <mxCell id="Nr94H_6sKJIdwoHoWn_e-5" value="counter" style="text;html=1;strokeColor=none;fillColor=none;align=right;verticalAlign=middle;whiteSpace=wrap;rounded=0;fontFamily=Computer Modern;" parent="1" vertex="1">
          <mxGeometry x="230" y="200.5" width="60" height="15" as="geometry" />
        </mxCell>
        <mxCell id="Nr94H_6sKJIdwoHoWn_e-6" value="" style="endArrow=classic;html=1;rounded=0;dashed=1;entryX=0.5;entryY=0;entryDx=0;entryDy=0;fontFamily=Computer Modern;" parent="1" target="Nr94H_6sKJIdwoHoWn_e-3" edge="1">
          <mxGeometry width="50" height="50" relative="1" as="geometry">
            <mxPoint x="280" y="160" as="sourcePoint" />
            <mxPoint x="295" y="110" as="targetPoint" />
          </mxGeometry>
        </mxCell>
        <mxCell id="Nr94H_6sKJIdwoHoWn_e-7" value="" style="endArrow=classic;html=1;rounded=0;dashed=1;entryX=0.5;entryY=0;entryDx=0;entryDy=0;fontFamily=Computer Modern;" parent="1" edge="1">
          <mxGeometry width="50" height="50" relative="1" as="geometry">
            <mxPoint x="279.83000000000004" y="250" as="sourcePoint" />
            <mxPoint x="279.83000000000004" y="280" as="targetPoint" />
          </mxGeometry>
        </mxCell>
        <mxCell id="Nr94H_6sKJIdwoHoWn_e-8" value="t&lt;sub&gt;2&lt;/sub&gt;&lt;br&gt;Increment()" style="text;html=1;strokeColor=none;fillColor=none;align=center;verticalAlign=middle;whiteSpace=wrap;rounded=0;fontFamily=Computer Modern;" parent="1" vertex="1">
          <mxGeometry x="250" y="120" width="60" height="40" as="geometry" />
        </mxCell>
        <mxCell id="Nr94H_6sKJIdwoHoWn_e-9" value="(c+1) / x" style="text;html=1;strokeColor=none;fillColor=none;align=center;verticalAlign=middle;whiteSpace=wrap;rounded=0;fontFamily=Computer Modern;" parent="1" vertex="1">
          <mxGeometry x="256.75" y="284" width="46.5" height="10" as="geometry" />
        </mxCell>
        <mxCell id="Nr94H_6sKJIdwoHoWn_e-10" value="x" style="rounded=0;whiteSpace=wrap;html=1;fontFamily=Computer Modern;" parent="1" vertex="1">
          <mxGeometry x="295" y="222" width="20" height="20" as="geometry" />
        </mxCell>
        <mxCell id="Nr94H_6sKJIdwoHoWn_e-11" value="prescaler" style="text;html=1;strokeColor=none;fillColor=none;align=right;verticalAlign=middle;whiteSpace=wrap;rounded=0;fontFamily=Computer Modern;" parent="1" vertex="1">
          <mxGeometry x="230" y="224.5" width="60" height="15" as="geometry" />
        </mxCell>
        <mxCell id="Nr94H_6sKJIdwoHoWn_e-12" value="" style="endArrow=open;html=1;rounded=0;endFill=0;" parent="1" edge="1">
          <mxGeometry width="50" height="50" relative="1" as="geometry">
            <mxPoint x="135" y="310" as="sourcePoint" />
            <mxPoint x="325" y="310" as="targetPoint" />
          </mxGeometry>
        </mxCell>
        <mxCell id="Nr94H_6sKJIdwoHoWn_e-13" value="time" style="text;html=1;strokeColor=none;fillColor=none;align=right;verticalAlign=middle;whiteSpace=wrap;rounded=0;fontFamily=Computer Modern;" parent="1" vertex="1">
          <mxGeometry x="266" y="314" width="60" height="15" as="geometry" />
        </mxCell>
      </root>
    </mxGraphModel>
  </diagram>
</mxfile>
